<?xml version="1.0" encoding="UTF-8" standalone="no"?>
<!DOCTYPE svg PUBLIC "-//W3C//DTD SVG 1.1//EN" "http://www.w3.org/Graphics/SVG/1.1/DTD/svg11.dtd">
<svg width="100%" height="100%" viewBox="0 0 500 500" version="1.1" xmlns="http://www.w3.org/2000/svg" xmlns:xlink="http://www.w3.org/1999/xlink" xml:space="preserve" xmlns:serif="http://www.serif.com/" style="fill-rule:evenodd;clip-rule:evenodd;stroke-linejoin:round;stroke-miterlimit:2;">
    <g id="Layer1">
    </g>
    <g transform="matrix(1,0,0,1,-5.08827,2.63067)">
        <g transform="matrix(403.066,0,0,400,184.046,390.821)">
            <path d="M0.698,-0L0.042,-0L0.37,-0.711L0.698,-0Z" style="fill:rgb(0,171,132);fill-rule:nonzero;"/>
        </g>
        <g transform="matrix(1,0,0,1,5.08827,-2.63067)">
            <path d="M195.888,393.449C191.362,393.449 186.756,393.452 181.354,393.452L57.21,393.452L57.21,115.052L174.905,115.052C192.64,115.052 206.748,117.718 217.227,123.052C229.857,129.452 239.597,138.252 246.45,149.452C253.302,160.652 256.728,173.185 256.728,187.052C256.728,200.118 253.234,212.185 246.248,223.252C239.262,234.318 229.722,243.052 217.63,249.452C230.991,254.117 242.416,261.948 251.905,272.945L195.888,393.449Z" style="fill:rgb(126,129,128);fill-rule:nonzero;"/>
        </g>
    </g>
</svg>
