<?xml version="1.0" encoding="UTF-8" standalone="no"?>
<!DOCTYPE svg PUBLIC "-//W3C//DTD SVG 1.1//EN" "http://www.w3.org/Graphics/SVG/1.1/DTD/svg11.dtd">
<svg width="100%" height="100%" viewBox="0 0 500 500" version="1.1" xmlns="http://www.w3.org/2000/svg" xmlns:xlink="http://www.w3.org/1999/xlink" xml:space="preserve" xmlns:serif="http://www.serif.com/" style="fill-rule:evenodd;clip-rule:evenodd;stroke-linejoin:round;stroke-miterlimit:2;">
    <g id="Layer1">
    </g>
    <g transform="matrix(1,0,0,1,7.57032,-7.52268)">
        <g transform="matrix(403.066,0,0,400,30.7427,390.821)">
            <path d="M0.058,-0L0.058,-0.667L0.396,-0.667C0.467,-0.667 0.518,-0.649 0.55,-0.613C0.583,-0.578 0.599,-0.537 0.599,-0.492C0.599,-0.458 0.589,-0.428 0.571,-0.402C0.552,-0.375 0.524,-0.356 0.487,-0.346C0.573,-0.325 0.616,-0.274 0.616,-0.191C0.616,-0.141 0.605,-0.093 0.571,-0.058C0.51,0.002 0.585,0 0.375,-0L0.058,-0ZM0.247,-0.411L0.341,-0.411C0.365,-0.411 0.382,-0.417 0.392,-0.429C0.401,-0.441 0.406,-0.454 0.406,-0.468C0.406,-0.505 0.383,-0.523 0.338,-0.523L0.247,-0.523L0.247,-0.411ZM0.247,-0.148L0.346,-0.148C0.371,-0.148 0.389,-0.155 0.401,-0.167C0.412,-0.179 0.418,-0.193 0.418,-0.208C0.418,-0.223 0.412,-0.237 0.401,-0.25C0.39,-0.263 0.369,-0.27 0.339,-0.27L0.247,-0.27L0.247,-0.148Z" style="fill:rgb(81,81,81);fill-rule:nonzero;"/>
        </g>
        <g transform="matrix(403.066,0,0,400,204.664,390.821)">
            <path d="M0.426,-0L0.388,-0.131L0.209,-0.131L0.169,-0L-0.139,0L0.047,-0.14L0.209,-0.667L0.425,-0.667L0.634,-0L0.426,-0ZM0.244,-0.277L0.352,-0.277L0.298,-0.47L0.244,-0.277Z" style="fill:rgb(81,81,81);fill-rule:nonzero;"/>
        </g>
    </g>
</svg>
