<?xml version="1.0" standalone="no"?>
<!DOCTYPE svg PUBLIC "-//W3C//DTD SVG 20010904//EN"
 "http://www.w3.org/TR/2001/REC-SVG-20010904/DTD/svg10.dtd">
<svg version="1.0" xmlns="http://www.w3.org/2000/svg"
 width="700.000000pt" height="700.000000pt" viewBox="0 0 700.000000 700.000000"
 preserveAspectRatio="xMidYMid meet">
<metadata>
Created by potrace 1.14, written by Peter Selinger 2001-2017
</metadata>
<g transform="translate(0.000000,700.000000) scale(0.100000,-0.100000)"
fill="#000000" stroke="none">
<path d="M865 3513 c1 -1022 3 -1863 3 -1869 2 -7 454 -10 1528 -10 l1527 1
14 40 c8 22 19 54 23 70 11 44 128 423 144 470 8 22 21 65 30 96 l16 57 504 0
505 0 15 -47 c8 -25 16 -55 19 -66 5 -18 105 -361 144 -490 8 -27 19 -68 25
-90 l10 -41 587 2 c322 0 587 2 587 3 1 0 -12 43 -28 94 -17 50 -40 126 -53
167 -13 41 -40 127 -60 190 -20 63 -47 149 -60 190 -24 77 -74 235 -240 760
-53 168 -119 377 -146 465 -28 88 -54 171 -59 185 -11 32 -115 362 -170 540
-23 74 -48 153 -55 175 -8 22 -39 121 -70 220 -31 99 -62 198 -70 220 -7 22
-24 76 -38 120 -14 44 -48 153 -76 243 l-52 162 -609 0 -609 0 -36 -117 c-20
-65 -56 -181 -80 -258 -24 -77 -62 -201 -85 -275 -23 -74 -43 -139 -44 -145
-2 -5 -7 4 -11 20 -32 137 -100 280 -186 391 -95 123 -253 245 -379 292 -45
17 -91 32 -110 37 -47 11 -161 35 -195 41 -22 4 -517 9 -1101 11 l-1060 4 1
-1858z m1681 1043 c186 -27 273 -118 279 -291 4 -93 -51 -219 -115 -265 -30
-22 -93 -46 -144 -57 -35 -7 -604 -12 -623 -5 -16 5 -19 618 -3 624 19 6 558
1 606 -6z m2244 -776 c124 -443 128 -460 154 -542 8 -27 12 -49 8 -49 -26 -4
-586 -3 -593 1 -4 3 0 35 11 70 10 36 53 189 95 340 42 151 101 360 131 463
30 104 54 192 55 195 1 13 19 -46 139 -478z m-1165 -106 c-14 -43 -33 -105
-42 -137 -12 -45 -20 -57 -32 -53 -140 45 -261 91 -246 94 59 9 225 90 290
140 28 21 51 38 53 37 1 -1 -9 -37 -23 -81z m-998 -548 c124 -33 186 -85 239
-201 33 -71 36 -160 9 -232 -26 -70 -91 -147 -150 -177 -93 -47 -121 -50 -467
-52 l-328 -1 0 342 0 342 318 -2 c259 -2 328 -5 379 -19z"/>
</g>
</svg>
