<?xml version="1.0" standalone="no"?>
<!DOCTYPE svg PUBLIC "-//W3C//DTD SVG 20010904//EN"
 "http://www.w3.org/TR/2001/REC-SVG-20010904/DTD/svg10.dtd">
<svg version="1.0" xmlns="http://www.w3.org/2000/svg"
 width="700.000000pt" height="700.000000pt" viewBox="0 0 700.000000 700.000000"
 preserveAspectRatio="xMidYMid meet">
<metadata>
Created by potrace 1.14, written by Peter Selinger 2001-2017
</metadata>
<g transform="translate(0.000000,700.000000) scale(0.100000,-0.100000)"
fill="#000000" stroke="none">
<path d="M4568 5418 c-14 -29 -54 -114 -88 -188 -34 -74 -81 -175 -105 -225
-23 -49 -65 -139 -93 -200 -27 -60 -69 -150 -92 -200 -23 -49 -51 -110 -62
-135 -11 -25 -49 -105 -84 -179 -35 -73 -64 -135 -64 -137 0 -1 -29 -64 -65
-139 -36 -75 -65 -139 -65 -141 0 -2 -24 -54 -54 -116 -29 -62 -64 -138 -78
-168 -37 -80 -98 -211 -148 -317 l-43 -93 -71 70 c-100 98 -165 144 -288 203
-59 29 -107 54 -107 57 0 3 25 20 55 39 151 91 294 245 375 403 32 63 75 184
84 238 3 19 8 49 11 65 8 41 7 199 0 260 -28 220 -121 411 -275 566 -136 135
-282 220 -461 265 -161 40 -205 42 -1142 43 l-907 2 2 -1948 2 -1948 2818 -2
c1549 -1 2817 0 2817 3 0 5 -14 37 -88 194 -22 47 -56 121 -77 165 -21 44 -77
166 -125 270 -48 105 -113 243 -144 309 -31 65 -56 119 -56 121 0 1 -24 54
-54 116 -29 63 -94 202 -144 309 -49 107 -109 236 -132 285 -23 50 -68 146
-100 215 -32 69 -77 166 -100 215 -23 50 -84 181 -136 293 -52 111 -109 235
-128 275 -31 67 -199 427 -269 577 -16 36 -75 162 -130 280 -55 118 -114 246
-131 283 l-32 68 -26 -53z"/>
</g>
</svg>
